<svg width="1551" height="455" viewBox="0 0 1551 455" fill="none" xmlns="http://www.w3.org/2000/svg">
  <title>VolatilityForge</title>
  <desc>Premium VolatilityForge vector logo for website header.</desc>

  <defs>
    <linearGradient id="shieldMetal" x1="80" y1="58" x2="322" y2="344" gradientUnits="userSpaceOnUse">
      <stop offset="0" stop-color="#F8FAFC"/>
      <stop offset="0.18" stop-color="#AAB6C6"/>
      <stop offset="0.38" stop-color="#FFFFFF"/>
      <stop offset="0.62" stop-color="#6B7788"/>
      <stop offset="0.82" stop-color="#D7DEE8"/>
      <stop offset="1" stop-color="#FFFFFF"/>
    </linearGradient>

    <linearGradient id="shieldDark" x1="118" y1="92" x2="290" y2="310" gradientUnits="userSpaceOnUse">
      <stop offset="0" stop-color="#121A28"/>
      <stop offset="0.52" stop-color="#07111D"/>
      <stop offset="1" stop-color="#03070D"/>
    </linearGradient>

    <linearGradient id="wordMetal" x1="392" y1="120" x2="1302" y2="250" gradientUnits="userSpaceOnUse">
      <stop offset="0" stop-color="#0B1220"/>
      <stop offset="0.18" stop-color="#334155"/>
      <stop offset="0.36" stop-color="#020617"/>
      <stop offset="0.55" stop-color="#64748B"/>
      <stop offset="0.72" stop-color="#111827"/>
      <stop offset="1" stop-color="#020617"/>
    </linearGradient>

    <linearGradient id="blueLine" x1="380" y1="310" x2="1408" y2="210" gradientUnits="userSpaceOnUse">
      <stop offset="0" stop-color="#176CFF"/>
      <stop offset="0.46" stop-color="#4DA3FF"/>
      <stop offset="1" stop-color="#74E4BF"/>
    </linearGradient>

    <linearGradient id="vfMetal" x1="120" y1="128" x2="290" y2="265" gradientUnits="userSpaceOnUse">
      <stop offset="0" stop-color="#FFFFFF"/>
      <stop offset="0.28" stop-color="#94A3B8"/>
      <stop offset="0.54" stop-color="#F8FAFC"/>
      <stop offset="0.78" stop-color="#64748B"/>
      <stop offset="1" stop-color="#FFFFFF"/>
    </linearGradient>

    <filter id="softShadow" x="32" y="28" width="340" height="360" filterUnits="userSpaceOnUse" color-interpolation-filters="sRGB">
      <feDropShadow dx="0" dy="22" stdDeviation="18" flood-color="#020617" flood-opacity="0.28"/>
    </filter>

    <filter id="textShadow" x="340" y="92" width="1100" height="250" filterUnits="userSpaceOnUse" color-interpolation-filters="sRGB">
      <feDropShadow dx="0" dy="8" stdDeviation="5" flood-color="#020617" flood-opacity="0.16"/>
    </filter>
  </defs>

  <rect width="1551" height="455" fill="transparent"/>

  <g filter="url(#softShadow)">
    <path d="M202 42L335 94V195C335 276 281 346 202 373C123 346 69 276 69 195V94L202 42Z" fill="url(#shieldMetal)"/>
    <path d="M202 72L303 112V197C303 257 263 309 202 333C141 309 101 257 101 197V112L202 72Z" fill="url(#shieldDark)"/>

    <path d="M135 129H168L195 268L228 160H259L293 268H261L244 213L216 298H181L159 174L131 298H99L135 129Z" fill="url(#vfMetal)"/>

    <path d="M111 285C151 235 187 218 229 218C262 218 281 232 312 184" stroke="url(#blueLine)" stroke-width="13" stroke-linecap="round" stroke-linejoin="round"/>
    <circle cx="312" cy="184" r="14" fill="#74E4BF"/>
    <circle cx="312" cy="184" r="7" fill="#03111F"/>
  </g>

  <g filter="url(#textShadow)">
    <text
      x="392"
      y="204"
      font-family="Inter, Arial, Helvetica, sans-serif"
      font-size="108"
      font-weight="900"
      letter-spacing="-6"
      fill="url(#wordMetal)"
    >
      VolatilityForge
    </text>

    <text
      x="398"
      y="269"
      font-family="Inter, Arial, Helvetica, sans-serif"
      font-size="27"
      font-weight="800"
      letter-spacing="7"
      fill="#176CFF"
    >
      PRIVATE LONG &amp; SHORT CRYPTO SIGNALS
    </text>

    <path
      d="M396 318C480 285 548 301 623 273C696 245 744 244 817 271C892 299 956 282 1018 238C1083 192 1134 201 1198 221C1270 243 1321 214 1404 147"
      stroke="url(#blueLine)"
      stroke-width="10"
      stroke-linecap="round"
      stroke-linejoin="round"
    />

    <circle cx="1404" cy="147" r="13" fill="#74E4BF"/>
    <circle cx="1404" cy="147" r="6" fill="#03111F"/>

    <rect x="396" y="358" width="196" height="43" rx="21.5" fill="#EEF6FF" stroke="#C9E2FF"/>
    <text x="427" y="386" font-family="Inter, Arial, Helvetica, sans-serif" font-size="16" font-weight="850" fill="#0B5ED7">
      Private Discord
    </text>

    <rect x="612" y="358" width="178" height="43" rx="21.5" fill="#EFFCF7" stroke="#BCEEDC"/>
    <text x="643" y="386" font-family="Inter, Arial, Helvetica, sans-serif" font-size="16" font-weight="850" fill="#08785D">
      LONG + SHORT
    </text>

    <rect x="810" y="358" width="183" height="43" rx="21.5" fill="#F8FAFC" stroke="#CBD5E1"/>
    <text x="842" y="386" font-family="Inter, Arial, Helvetica, sans-serif" font-size="16" font-weight="850" fill="#334155">
      Risk-first
    </text>
  </g>
</svg>