<svg width="1100" height="180" viewBox="0 0 1100 180" fill="none" xmlns="http://www.w3.org/2000/svg">
  <defs>
    <linearGradient id="vfBlue" x1="0" y1="0" x2="1100" y2="180" gradientUnits="userSpaceOnUse">
      <stop offset="0" stop-color="#4DA3FF"/>
      <stop offset="0.52" stop-color="#176CFF"/>
      <stop offset="1" stop-color="#74E4BF"/>
    </linearGradient>

    <linearGradient id="vfMetal" x1="0" y1="0" x2="760" y2="180" gradientUnits="userSpaceOnUse">
      <stop offset="0" stop-color="#FFFFFF"/>
      <stop offset="0.22" stop-color="#B8C3D4"/>
      <stop offset="0.45" stop-color="#F8FAFC"/>
      <stop offset="0.68" stop-color="#8796AA"/>
      <stop offset="1" stop-color="#EAF1FA"/>
    </linearGradient>

    <filter id="vfGlow" x="-20%" y="-40%" width="140%" height="180%">
      <feGaussianBlur stdDeviation="3.5" result="blur"/>
      <feMerge>
        <feMergeNode in="blur"/>
        <feMergeNode in="SourceGraphic"/>
      </feMerge>
    </filter>
  </defs>

  <rect width="1100" height="180" fill="transparent"/>

  <g transform="translate(8 18)">
    <path d="M18 20H47L73 118L101 20H130L91 146H56L18 20Z" fill="url(#vfMetal)"/>
    <path d="M103 20H174V47H134V72H169V99H134V146H103V20Z" fill="url(#vfMetal)"/>

    <path
      d="M16 124C45 111 63 92 84 73C106 53 132 41 176 22"
      stroke="url(#vfBlue)"
      stroke-width="9"
      stroke-linecap="round"
      stroke-linejoin="round"
      filter="url(#vfGlow)"
    />
    <circle cx="176" cy="22" r="7" fill="#74E4BF"/>
  </g>

  <g transform="translate(225 44)">
    <text
      x="0"
      y="58"
      fill="url(#vfMetal)"
      font-family="Inter, Arial, Helvetica, sans-serif"
      font-size="68"
      font-weight="900"
      letter-spacing="-3"
    >
      VolatilityForge
    </text>

    <text
      x="3"
      y="101"
      fill="#BFD8F4"
      font-family="Inter, Arial, Helvetica, sans-serif"
      font-size="18"
      font-weight="800"
      letter-spacing="5.4"
    >
      PRIVATE LONG &amp; SHORT CRYPTO SIGNALS
    </text>

    <path
      d="M4 126H600"
      stroke="url(#vfBlue)"
      stroke-width="3"
      stroke-linecap="round"
      opacity="0.75"
    />

    <path
      d="M665 106C702 81 739 67 779 52C824 35 874 22 935 12"
      stroke="url(#vfBlue)"
      stroke-width="6"
      stroke-linecap="round"
      stroke-linejoin="round"
      filter="url(#vfGlow)"
    />
    <circle cx="935" cy="12" r="6" fill="#74E4BF"/>
  </g>
</svg>