<!-- ================= FILE FROM ROOT: public/volatilityforge-logo.svg ================= -->
<svg width="520" height="116" viewBox="0 0 520 116" fill="none" xmlns="http://www.w3.org/2000/svg">
  <rect width="520" height="116" rx="28" fill="none"/>
  <g filter="url(#shadow)">
    <rect x="6" y="10" width="96" height="96" rx="26" fill="url(#markBg)" stroke="url(#markStroke)" stroke-width="1.5"/>
    <path d="M28 36H42.5L54.4 74.5L70.8 36H84.8L62.2 83H47.6L28 36Z" fill="url(#vfFill)"/>
    <path d="M25 83C39 64 51 72 63 55C73 41 85 42 92 48" stroke="#74E4BF" stroke-width="4.5" stroke-linecap="round"/>
    <path d="M26 83V58M43 76V49M60 62V39M78 51V31" stroke="#4DA3FF" stroke-width="2.5" stroke-linecap="round" opacity="0.65"/>
  </g>
  <text x="124" y="53" fill="#F6F9FF" font-family="Inter, Arial, sans-serif" font-size="35" font-weight="850" letter-spacing="-1.7">VolatilityForge</text>
  <text x="126" y="80" fill="#93A4B7" font-family="Inter, Arial, sans-serif" font-size="15" font-weight="600" letter-spacing="0.3">PRIVATE LONG &amp; SHORT CRYPTO SIGNALS</text>
  <path d="M126 91H344" stroke="url(#line)" stroke-width="2" stroke-linecap="round"/>
  <defs>
    <linearGradient id="markBg" x1="6" y1="10" x2="102" y2="106" gradientUnits="userSpaceOnUse">
      <stop stop-color="#284B68"/>
      <stop offset="0.45" stop-color="#111D2A"/>
      <stop offset="1" stop-color="#050A10"/>
    </linearGradient>
    <linearGradient id="markStroke" x1="6" y1="10" x2="102" y2="106" gradientUnits="userSpaceOnUse">
      <stop stop-color="#8AC9FF"/>
      <stop offset="0.55" stop-color="#285A86"/>
      <stop offset="1" stop-color="#74E4BF"/>
    </linearGradient>
    <linearGradient id="vfFill" x1="28" y1="36" x2="84.8" y2="83" gradientUnits="userSpaceOnUse">
      <stop stop-color="#FFFFFF"/>
      <stop offset="1" stop-color="#9FD3FF"/>
    </linearGradient>
    <linearGradient id="line" x1="126" y1="91" x2="344" y2="91" gradientUnits="userSpaceOnUse">
      <stop stop-color="#4DA3FF"/>
      <stop offset="1" stop-color="#74E4BF" stop-opacity="0"/>
    </linearGradient>
    <filter id="shadow" x="-8" y="-2" width="124" height="124" filterUnits="userSpaceOnUse" color-interpolation-filters="sRGB">
      <feDropShadow dx="0" dy="18" stdDeviation="14" flood-color="#000000" flood-opacity="0.45"/>
    </filter>
  </defs>
</svg>