<svg width="1400" height="220" viewBox="0 0 1400 220" fill="none" xmlns="http://www.w3.org/2000/svg">
  <defs>
    <linearGradient id="blue" x1="0" y1="40" x2="1400" y2="180" gradientUnits="userSpaceOnUse">
      <stop offset="0" stop-color="#7DD3FC"/>
      <stop offset="0.45" stop-color="#4DA3FF"/>
      <stop offset="0.75" stop-color="#176CFF"/>
      <stop offset="1" stop-color="#74E4BF"/>
    </linearGradient>

    <linearGradient id="metal" x1="0" y1="0" x2="900" y2="220" gradientUnits="userSpaceOnUse">
      <stop offset="0" stop-color="#FFFFFF"/>
      <stop offset="0.18" stop-color="#CBD5E1"/>
      <stop offset="0.38" stop-color="#F8FAFC"/>
      <stop offset="0.58" stop-color="#94A3B8"/>
      <stop offset="0.78" stop-color="#E2E8F0"/>
      <stop offset="1" stop-color="#FFFFFF"/>
    </linearGradient>

    <filter id="glow" x="-20%" y="-40%" width="140%" height="180%">
      <feGaussianBlur stdDeviation="4" result="blur"/>
      <feMerge>
        <feMergeNode in="blur"/>
        <feMergeNode in="SourceGraphic"/>
      </feMerge>
    </filter>

    <filter id="shadow" x="-10%" y="-30%" width="120%" height="160%">
      <feDropShadow dx="0" dy="10" stdDeviation="8" flood-color="#020617" flood-opacity="0.42"/>
    </filter>
  </defs>

  <rect width="1400" height="220" fill="transparent"/>

  <g filter="url(#shadow)">
    <g transform="translate(18 34)">
      <path d="M20 20H54L78 130L114 20H148L101 162H63L20 20Z" fill="url(#metal)"/>
      <path d="M122 20H205V52H160V82H198V113H160V162H122V20Z" fill="url(#metal)"/>

      <path
        d="M18 142C52 125 74 98 103 74C132 50 166 34 222 14"
        stroke="url(#blue)"
        stroke-width="11"
        stroke-linecap="round"
        stroke-linejoin="round"
        filter="url(#glow)"
      />
      <circle cx="222" cy="14" r="8" fill="#74E4BF"/>
    </g>

    <g transform="translate(295 48)">
      <text
        x="0"
        y="72"
        fill="url(#metal)"
        font-family="Inter, Arial, Helvetica, sans-serif"
        font-size="86"
        font-weight="900"
        letter-spacing="-4"
      >
        VolatilityForge
      </text>

      <text
        x="4"
        y="124"
        fill="#BFD8F4"
        font-family="Inter, Arial, Helvetica, sans-serif"
        font-size="22"
        font-weight="850"
        letter-spacing="6.8"
      >
        PRIVATE LONG &amp; SHORT CRYPTO SIGNALS
      </text>

      <path
        d="M4 152H760"
        stroke="url(#blue)"
        stroke-width="4"
        stroke-linecap="round"
        opacity="0.8"
      />

      <path
        d="M820 132C874 94 922 73 982 53C1048 31 1120 17 1218 9"
        stroke="url(#blue)"
        stroke-width="8"
        stroke-linecap="round"
        stroke-linejoin="round"
        filter="url(#glow)"
      />
      <circle cx="1218" cy="9" r="8" fill="#74E4BF"/>
    </g>
  </g>
</svg>